<svg width="24" height="24" viewBox="0 0 24 24" fill="none" xmlns="http://www.w3.org/2000/svg">
<g clip-path="url(#clip0)">
<path d="M22.5575 10.3154C22.4593 10.2995 22.3599 10.2921 22.2604 10.2934H5.32893L5.69812 10.1217C6.059 9.95091 6.38731 9.71844 6.66833 9.43484L11.4164 4.68682C12.0417 4.08988 12.1468 3.1296 11.6653 2.41154C11.1051 1.64637 10.0306 1.48024 9.26537 2.04052C9.20355 2.08581 9.14479 2.13518 9.08957 2.18831L0.503632 10.7742C-0.167358 11.4445 -0.167949 12.5317 0.502291 13.2027C0.50272 13.2032 0.503203 13.2036 0.503632 13.2041L9.08957 21.79C9.7611 22.4596 10.8483 22.4581 11.518 21.7866C11.5707 21.7338 11.62 21.6775 11.6653 21.6183C12.1468 20.9002 12.0417 19.9399 11.4164 19.343L6.67692 14.5864C6.42498 14.3342 6.13531 14.1227 5.81833 13.9596L5.30317 13.7278H22.1659C23.0432 13.7604 23.8128 13.1476 23.9776 12.2854C24.1294 11.3492 23.4936 10.4673 22.5575 10.3154Z" fill="currentColor"/>
</g>
<defs>
<clipPath id="clip0">
<rect width="24" height="24" fill="currentColor"/>
</clipPath>
</defs>
</svg>
