<svg width="24" height="24" viewBox="0 0 24 24" fill="none" xmlns="http://www.w3.org/2000/svg">
<path d="M19.71 9.29L12.71 2.29C12.6171 2.19627 12.5065 2.12188 12.3846 2.07111C12.2627 2.02034 12.132 1.9942 12 1.9942C11.868 1.9942 11.7373 2.02034 11.6154 2.07111C11.4936 2.12188 11.383 2.19627 11.29 2.29L4.29002 9.29C4.19734 9.38344 4.12401 9.49426 4.07425 9.61609C4.02448 9.73793 3.99926 9.86839 4.00002 10V21C4.00002 21.2652 4.10537 21.5196 4.29291 21.7071C4.48045 21.8946 4.7348 22 5.00002 22H8.00002C8.19365 21.9936 8.38125 21.931 8.54002 21.82C8.60026 21.7892 8.65722 21.7523 8.71002 21.71C8.75234 21.6572 8.7892 21.6002 8.82002 21.54C8.93106 21.3812 8.99359 21.1936 9.00002 21V15C9.00002 14.7348 9.10537 14.4804 9.29291 14.2929C9.48045 14.1054 9.7348 14 10 14H14C14.2652 14 14.5196 14.1054 14.7071 14.2929C14.8947 14.4804 15 14.7348 15 15V21C15 21.2652 15.1054 21.5196 15.2929 21.7071C15.4804 21.8946 15.7348 22 16 22H19C19.2652 22 19.5196 21.8946 19.7071 21.7071C19.8947 21.5196 20 21.2652 20 21V10C20.0008 9.86839 19.9756 9.73793 19.9258 9.61609C19.876 9.49426 19.8027 9.38344 19.71 9.29Z" fill="currentColor"/>
</svg>
