<svg width="24" height="24" viewBox="0 0 24 24" fill="none" xmlns="http://www.w3.org/2000/svg">
<path d="M12 2C10.0222 2 8.08879 2.58649 6.4443 3.6853C4.79981 4.78412 3.51809 6.3459 2.76121 8.17317C2.00433 10.0004 1.8063 12.0111 2.19215 13.9509C2.578 15.8907 3.53041 17.6725 4.92894 19.0711C6.32746 20.4696 8.10929 21.422 10.0491 21.8079C11.9889 22.1937 13.9996 21.9957 15.8268 21.2388C17.6541 20.4819 19.2159 19.2002 20.3147 17.5557C21.4135 15.9112 22 13.9778 22 12C22 10.6868 21.7413 9.38642 21.2388 8.17317C20.7363 6.95991 19.9997 5.85752 19.0711 4.92893C18.1425 4.00035 17.0401 3.26375 15.8268 2.7612C14.6136 2.25866 13.3132 2 12 2ZM9.47 12.29C9.45061 12.3864 9.42042 12.4803 9.38 12.57C9.34894 12.6623 9.30518 12.7498 9.25 12.83C9.19475 12.913 9.13108 12.9901 9.06 13.06C8.98792 13.1287 8.91106 13.1922 8.83 13.25L8.57 13.39L8.29 13.47C8.09873 13.5099 7.90128 13.5099 7.71 13.47L7.43 13.39L7.17 13.25C7.08895 13.1922 7.01209 13.1287 6.94 13.06C6.86893 12.9901 6.80526 12.913 6.75 12.83C6.69537 12.7479 6.6485 12.6608 6.61 12.57C6.57742 12.4785 6.5507 12.3849 6.53 12.29C6.51967 12.1936 6.51967 12.0964 6.53 12C6.53252 11.6027 6.69045 11.2223 6.97 10.94C7.04209 10.8713 7.11895 10.8078 7.2 10.75C7.28137 10.6968 7.36861 10.6532 7.46 10.62C7.54966 10.5796 7.64359 10.5494 7.74 10.53C7.93128 10.4901 8.12873 10.4901 8.32 10.53C8.41642 10.5494 8.51035 10.5796 8.6 10.62C8.6914 10.6532 8.77864 10.6968 8.86 10.75C8.94106 10.8078 9.01792 10.8713 9.09 10.94C9.3586 11.227 9.50555 11.6069 9.5 12C9.50042 12.0975 9.49037 12.1947 9.47 12.29ZM13.06 13.06C12.7777 13.3396 12.3973 13.4975 12 13.5C11.9036 13.5103 11.8064 13.5103 11.71 13.5L11.43 13.42C11.3392 13.3815 11.2521 13.3346 11.17 13.28C11.087 13.2247 11.0099 13.1611 10.94 13.09C10.798 12.9466 10.6859 12.7764 10.6104 12.5893C10.5348 12.4021 10.4973 12.2018 10.5 12C10.4897 11.9036 10.4897 11.8064 10.5 11.71C10.5207 11.6151 10.5474 11.5215 10.58 11.43C10.6207 11.3402 10.6674 11.2534 10.72 11.17C10.832 11.0046 10.9746 10.862 11.14 10.75L11.4 10.61L11.68 10.53C11.9214 10.4824 12.1708 10.4949 12.4062 10.5664C12.6416 10.6379 12.8559 10.7662 13.03 10.94C13.1011 11.0099 13.1647 11.087 13.22 11.17C13.2732 11.2514 13.3168 11.3386 13.35 11.43C13.3904 11.5197 13.4206 11.6136 13.44 11.71C13.4503 11.8064 13.4503 11.9036 13.44 12C13.4537 12.389 13.3177 12.7683 13.06 13.06ZM17.47 12.29C17.4506 12.3864 17.4204 12.4803 17.38 12.57C17.3489 12.6623 17.3052 12.7498 17.25 12.83C17.1947 12.913 17.1311 12.9901 17.06 13.06C16.7777 13.3396 16.3973 13.4975 16 13.5C15.6023 13.4997 15.221 13.3414 14.94 13.06C14.8689 12.9901 14.8053 12.913 14.75 12.83C14.6954 12.7479 14.6485 12.6608 14.61 12.57C14.5774 12.4785 14.5507 12.3849 14.53 12.29C14.5197 12.1936 14.5197 12.0964 14.53 12C14.5325 11.6027 14.6905 11.2223 14.97 10.94C15.2573 10.6707 15.6363 10.5209 16.03 10.5209C16.4237 10.5209 16.8027 10.6707 17.09 10.94C17.3586 11.227 17.5055 11.6069 17.5 12C17.5004 12.0975 17.4904 12.1947 17.47 12.29Z" fill="currentColor"/>
</svg>
