<svg width="24" height="24" viewBox="0 0 24 24" fill="none" xmlns="http://www.w3.org/2000/svg">
<path d="M10 18C14.4183 18 18 14.4183 18 10C18 5.58172 14.4183 2 10 2C5.58172 2 2 5.58172 2 10C2 14.4183 5.58172 18 10 18Z" fill="currentColor"/>
<path d="M21.71 21.71C21.617 21.8037 21.5064 21.8781 21.3846 21.9289C21.2627 21.9797 21.132 22.0058 21 22.0058C20.868 22.0058 20.7373 21.9797 20.6154 21.9289C20.4935 21.8781 20.3829 21.8037 20.29 21.71L15.61 17C16.1245 16.5909 16.5908 16.1245 17 15.61L21.68 20.29C21.7757 20.381 21.8525 20.49 21.9058 20.6108C21.9592 20.7316 21.9881 20.8617 21.9909 20.9937C21.9937 21.1258 21.9703 21.257 21.9221 21.38C21.8739 21.5029 21.8018 21.6151 21.71 21.71Z" fill="currentColor"/>
</svg>
